<svg version="1" xmlns="http://www.w3.org/2000/svg" width="682.667" height="682.667" viewBox="0 0 512.000000 512.000000"><path d="M23 1.4C14 3.8 6.7 10.1 2.6 18.9L.5 23.5v465l2.1 4.6c3.1 6.7 8.7 12.4 15.2 15.6l5.7 2.8h465l5.7-2.8c6.5-3.2 12.1-8.9 15.2-15.6l2.1-4.6v-465l-2.8-5.7c-3.2-6.5-8.9-12.1-15.6-15.2L488.5.5 258 .3C78 .2 26.5.4 23 1.4zm320.4 62.8c4.9 16.1 9.4 29.8 10 30.4.6.7 14.3 5.1 30.4 10 16 4.9 29.2 9.2 29.2 9.5 0 .3-13.1 4.5-29.1 9.4s-29.6 9.4-30.3 9.9c-.7.6-5.2 14.1-10.1 30.1-4.8 15.9-9 29.4-9.3 29.9-.2.5-4.6-12.7-9.7-29.3s-9.5-30.5-9.8-30.8c-.3-.3-14.2-4.7-30.8-9.8-16.6-5-29.8-9.4-29.3-9.7.5-.3 14-4.5 29.9-9.3 16-4.9 29.5-9.4 30.1-10.1.5-.7 5-14.3 9.9-30.3s9.1-29.1 9.4-29.1c.4 0 4.6 13.2 9.5 29.2zm-25.6 198c97.4 97.4 128.5 129.1 129.1 131.6 1.8 6.3.2 8.6-22.1 31-22.5 22.4-24.6 23.9-31 22.1-2.5-.6-34.6-32.2-131.5-129.1L134 189.5v-4.3c0-2.4.6-5.5 1.4-7 1.6-3 40-41.4 43.1-43.1 1.1-.5 4-1.1 6.5-1.1h4.5l128.3 128.2zm-208.2-15.5c3.2 10.8 6.4 20.1 7 20.7.6.6 9.9 3.8 20.7 7 10.8 3.3 19.7 6.2 19.7 6.6 0 .3-8.8 3.2-19.6 6.5-10.8 3.2-20.2 6.4-20.8 7-.6.7-3.8 10-7.1 20.8-3.2 10.9-6.1 19.7-6.4 19.7-.4 0-3.3-8.8-6.5-19.6-3.3-10.8-6.5-20.2-7.2-20.8-.6-.7-10-3.9-20.8-7.2-10.8-3.2-19.6-6.1-19.6-6.5 0-.3 8.8-3.2 19.7-6.4 10.8-3.3 20.1-6.5 20.8-7.1.6-.6 3.8-10 7-20.8 3.3-10.8 6.2-19.6 6.5-19.6.4 0 3.3 8.9 6.6 19.7z"/><path d="M173.7 173.8L163 184.5l28.8 28.8 28.7 28.7 10.8-10.8 10.7-10.7-28.8-28.8-28.7-28.7-10.8 10.8z"/></svg>